 http://desibbrg.org/images/66952052392581364616.gif 
http://desibbrg.org/images/97633038702693090699.jpg 
http://desibbrg.org/images/88251260250650469068.jpg 
http://desibbrg.org/images/27706776270934184724.jpg 
http://desibbrg.org/images/16069484897557237755.jpg

Media Info - 
Video
ID : 1
Format : AVC
Format/Info : Advanced Video Codec
Format profile : High@L4.1
Format settings, CABAC : Yes
Format settings, ReFrames : 7 frames
Muxing mode : Header stripping
Codec ID : V_MPEG4/ISO/AVC
Duration : 3h 7mn
Bit rate : 2 135 Kbps
Width : 1 280 pixels
Height : 544 pixels
Display aspect ratio : 2.35:1
Frame rate : 23.976 fps
Color space : YUV
Chroma subsampling : 4:2:0
Bit depth : 8 bits
Scan type : Progressive
Bits/(Pixel*Frame) : 0.128
Stream size : 2.74 GiB (85%)
Writing library : x264 core 110 r1820 fdcf2ae
Language : English
Default : Yes
Forced : No

Audio
ID : 2
Format : AC-3
Format/Info : Audio Coding 3
Mode extension : CM (complete main)
Muxing mode : Header stripping
Codec ID : A_AC3
Duration : 3h 7mn
Bit rate mode : Constant
Bit rate : 320 Kbps
Channel(s) : 6 channels
Channel positions : Front: L C R, Side: L R, LFE
Sampling rate : 48.0 KHz
Bit depth : 16 bits
Compression mode : Lossy
Stream size : 429 MiB (13%)
Language : Hindi
Default : Yes
Forced : No

Ripper : NhaNc3

Seeding 24x7... Extreme Seeding...


Enjoy!
